<svg width="28" height="28" viewBox="0 0 28 28" fill="none" xmlns="http://www.w3.org/2000/svg">
<path d="M3.49998 15.1667H4.66664V23.3333C4.66664 24.6202 5.71314 25.6667 6.99998 25.6667H21C22.2868 25.6667 23.3333 24.6202 23.3333 23.3333V15.1667H24.5C24.7307 15.1666 24.9562 15.0982 25.148 14.97C25.3398 14.8418 25.4893 14.6596 25.5776 14.4464C25.6659 14.2333 25.689 13.9987 25.644 13.7725C25.599 13.5462 25.4879 13.3383 25.3248 13.1752L14.8248 2.67517C14.7166 2.56673 14.588 2.4807 14.4465 2.42201C14.3049 2.36331 14.1532 2.3331 14 2.3331C13.8468 2.3331 13.695 2.36331 13.5535 2.42201C13.412 2.4807 13.2834 2.56673 13.1751 2.67517L2.67514 13.1752C2.51203 13.3383 2.40096 13.5462 2.35596 13.7725C2.31097 13.9987 2.33407 14.2333 2.42235 14.4464C2.51063 14.6596 2.66013 14.8418 2.85194 14.97C3.04375 15.0982 3.26927 15.1666 3.49998 15.1667ZM11.6666 23.3333V17.5H16.3333V23.3333H11.6666ZM14 5.14967L21 12.1497V17.5L21.0011 23.3333H18.6666V17.5C18.6666 16.2132 17.6201 15.1667 16.3333 15.1667H11.6666C10.3798 15.1667 9.33331 16.2132 9.33331 17.5V23.3333H6.99998V12.1497L14 5.14967Z" fill="white"/>
</svg>
