<svg width="28" height="28" viewBox="0 0 28 28" fill="none" xmlns="http://www.w3.org/2000/svg">
<path d="M14 25.6667C13.3812 25.6667 12.7877 25.4208 12.3501 24.9833C11.9125 24.5457 11.6667 23.9522 11.6667 23.3333H16.3333C16.3333 23.9522 16.0875 24.5457 15.6499 24.9833C15.2123 25.4208 14.6188 25.6667 14 25.6667ZM23.3333 22.1667H4.66666V19.8333L6.99999 18.6667V12.25C6.99999 8.21101 8.65782 5.59184 11.6667 4.87668V2.33334H16.3333V4.87668C19.3422 5.59068 21 8.20868 21 12.25V18.6667L23.3333 19.8333V22.1667ZM14 6.70834C13.2993 6.6631 12.5985 6.79424 11.9616 7.08976C11.3247 7.38529 10.772 7.83577 10.3542 8.40001C9.62796 9.54866 9.27165 10.8925 9.33332 12.25V19.8333H18.6667V12.25C18.7283 10.8925 18.372 9.54869 17.6458 8.40001C17.228 7.83577 16.6753 7.38529 16.0384 7.08976C15.4015 6.79424 14.7007 6.6631 14 6.70834Z" fill="white"/>
</svg>
