<svg width="34" height="34" viewBox="0 0 34 34" fill="none" xmlns="http://www.w3.org/2000/svg">
<g clip-path="url(#clip0_182_2517)">
<path d="M31.0249 0L12.5374 20.3469L7.17178 16.2563H4.19678L12.5374 29.8031L33.9999 0H31.0249Z" fill="#1386DA"/>
<path d="M28.6344 29.803C28.6344 30.1218 28.3687 30.3874 28.05 30.3874H4.19688C3.87813 30.3874 3.6125 30.1218 3.6125 29.803V5.9499C3.6125 5.63115 3.87813 5.36553 4.19688 5.36553H20.5062L23.7469 1.80615H1.16875C0.53125 1.80615 0 2.3374 0 2.9749V32.778C0 33.4687 0.53125 33.9999 1.16875 33.9999H30.9719C31.6094 33.9999 32.1406 33.4687 32.1406 32.8312V9.61553L28.5812 14.6093C28.6344 14.6093 28.6344 29.803 28.6344 29.803" fill="#3E4347"/>
</g>
<defs>
<clipPath id="clip0_182_2517">
<rect width="34" height="34" fill="white"/>
</clipPath>
</defs>
</svg>
