<svg width="28" height="28" viewBox="0 0 28 28" fill="none" xmlns="http://www.w3.org/2000/svg">
<path d="M3.5 5.25V7H22.75V21H10.5V22.75H26.25V21H24.5V5.25H3.5ZM7.00175 7.875C6.07432 7.87823 5.18578 8.24796 4.52982 8.90358C3.87386 9.55921 3.50369 10.4476 3.5 11.375C3.5 13.2991 5.0785 14.875 7.00175 14.875C7.92871 14.8713 8.81663 14.5013 9.47193 13.8457C10.1272 13.1901 10.4968 12.302 10.5 11.375C10.5 9.45262 8.92325 7.875 7.00175 7.875ZM12.25 8.75V10.5H16.625V8.75H12.25ZM18.375 8.75V10.5H21V8.75H18.375ZM7.00175 9.625C7.9765 9.625 8.75 10.3976 8.75 11.375C8.75 12.355 7.97737 13.125 7.00175 13.125C6.02175 13.125 5.25 12.355 5.25 11.375C5.25 10.3976 6.02262 9.625 7.00175 9.625V9.625ZM12.25 12.25V14H21V12.25H12.25ZM3.5 15.75V22.75H5.25V17.5H7.875V22.75H9.625V18.0758L11.431 19.0312C11.9429 19.3025 12.558 19.3016 13.069 19.0312V19.033L16.1577 17.3994L15.3414 15.8506L12.2517 17.4843L9.54275 16.0545C9.16468 15.8548 8.74359 15.7502 8.316 15.75H3.5Z" fill="#686868"/>
</svg>
