<svg width="28" height="28" viewBox="0 0 28 28" fill="none" xmlns="http://www.w3.org/2000/svg">
<path d="M23.625 4.375H4.375C3.91103 4.37552 3.46621 4.56006 3.13814 4.88814C2.81006 5.21621 2.62552 5.66103 2.625 6.125V21.8751C2.62501 22.1049 2.67029 22.3325 2.75825 22.5448C2.84621 22.7571 2.97513 22.95 3.13764 23.1125C3.30015 23.275 3.49308 23.4039 3.70541 23.4918C3.91773 23.5798 4.1453 23.625 4.37511 23.625L5.83964 23.6249C6.00509 23.6248 6.16715 23.5779 6.307 23.4895C6.44685 23.4011 6.55877 23.2748 6.62977 23.1254C7.05589 22.2276 7.72795 21.4691 8.5679 20.938C9.40785 20.407 10.3812 20.125 11.375 20.125C12.3688 20.125 13.3421 20.407 14.1821 20.938C15.0221 21.4691 15.6941 22.2276 16.1202 23.1254C16.1912 23.2748 16.3032 23.4011 16.443 23.4895C16.5829 23.5779 16.745 23.6249 16.9105 23.6249L23.625 23.625C24.089 23.6245 24.5338 23.4399 24.8619 23.1119C25.1899 22.7838 25.3745 22.339 25.375 21.875V6.125C25.3745 5.66103 25.1899 5.21621 24.8619 4.88814C24.5338 4.56006 24.089 4.37552 23.625 4.375V4.375ZM8.75 15.75C8.75 15.2308 8.90395 14.7233 9.19239 14.2916C9.48083 13.8599 9.8908 13.5235 10.3705 13.3248C10.8501 13.1261 11.3779 13.0742 11.8871 13.1754C12.3963 13.2767 12.864 13.5267 13.2312 13.8938C13.5983 14.261 13.8483 14.7287 13.9496 15.2379C14.0508 15.7471 13.9989 16.2749 13.8002 16.7545C13.6015 17.2342 13.2651 17.6442 12.8334 17.9326C12.4017 18.221 11.8942 18.375 11.375 18.375C10.679 18.3742 10.0118 18.0974 9.51971 17.6053C9.02759 17.1132 8.75078 16.446 8.75 15.75V15.75ZM23.625 21.875L17.4381 21.8749C16.7072 20.6186 15.6055 19.6193 14.2842 19.014C14.9466 18.4242 15.4141 17.6471 15.6248 16.7856C15.8355 15.924 15.7793 15.0188 15.4638 14.1899C15.1483 13.3611 14.5883 12.6476 13.8581 12.1443C13.1279 11.6409 12.2619 11.3713 11.375 11.3713C10.4881 11.3713 9.62213 11.6409 8.89192 12.1443C8.1617 12.6476 7.60172 13.3611 7.2862 14.1899C6.97069 15.0188 6.91455 15.924 7.12522 16.7856C7.33589 17.6471 7.80342 18.4242 8.46584 19.014C7.14449 19.6193 6.0428 20.6187 5.31191 21.875H4.375V6.125H23.625V21.875ZM6.125 10.5V8.75C6.125 8.51794 6.21719 8.29538 6.38128 8.13128C6.54538 7.96719 6.76794 7.875 7 7.875H21C21.2321 7.875 21.4546 7.96719 21.6187 8.13128C21.7828 8.29538 21.875 8.51794 21.875 8.75V19.25C21.875 19.4821 21.7828 19.7046 21.6187 19.8687C21.4546 20.0328 21.2321 20.125 21 20.125H19.25C19.0179 20.125 18.7954 20.0328 18.6313 19.8687C18.4672 19.7046 18.375 19.4821 18.375 19.25C18.375 19.0179 18.4672 18.7954 18.6313 18.6313C18.7954 18.4672 19.0179 18.375 19.25 18.375H20.125V9.625H7.875V10.5C7.875 10.7321 7.78281 10.9546 7.61872 11.1187C7.45462 11.2828 7.23206 11.375 7 11.375C6.76794 11.375 6.54538 11.2828 6.38128 11.1187C6.21719 10.9546 6.125 10.7321 6.125 10.5Z" fill="#686868"/>
</svg>
