<svg width="153" height="18" viewBox="0 0 153 18" fill="none" xmlns="http://www.w3.org/2000/svg">
<path d="M15.4997 1.95208L9.68166 17.7957H5.81809L0 1.95208H3.40904L7.7726 14.5498L12.1134 1.95208H15.4997Z" fill="black"/>
<path d="M19.021 3.72257C18.4604 3.72257 17.9907 3.54855 17.6119 3.20051C17.2483 2.83733 17.0665 2.39092 17.0665 1.86129C17.0665 1.33165 17.2483 0.892812 17.6119 0.544766C17.9907 0.181589 18.4604 0 19.021 0C19.5816 0 20.0437 0.181589 20.4073 0.544766C20.7861 0.892812 20.9755 1.33165 20.9755 1.86129C20.9755 2.39092 20.7861 2.83733 20.4073 3.20051C20.0437 3.54855 19.5816 3.72257 19.021 3.72257ZM20.5892 5.22068V17.7957H17.4074V5.22068H20.5892Z" fill="black"/>
<path d="M28.5508 18C27.5206 18 26.5963 17.8184 25.7782 17.4552C24.96 17.0769 24.3085 16.57 23.8237 15.9344C23.354 15.2989 23.0964 14.5952 23.0509 13.8235H26.2554C26.316 14.3077 26.5509 14.7087 26.96 15.0265C27.3842 15.3443 27.9069 15.5032 28.5281 15.5032C29.1342 15.5032 29.6039 15.3821 29.9372 15.14C30.2857 14.8979 30.4599 14.5876 30.4599 14.2093C30.4599 13.8008 30.2478 13.4981 29.8236 13.3014C29.4145 13.0895 28.7554 12.8625 27.8463 12.6204C26.9069 12.3934 26.1342 12.1589 25.5282 11.9168C24.9373 11.6747 24.4221 11.3039 23.9827 10.8045C23.5585 10.3052 23.3464 9.63178 23.3464 8.78436C23.3464 8.08827 23.5434 7.45271 23.9373 6.87768C24.3464 6.30265 24.9221 5.84868 25.6645 5.51576C26.4221 5.18285 27.3084 5.01639 28.3236 5.01639C29.8236 5.01639 31.0205 5.3947 31.9144 6.15133C32.8084 6.89281 33.3008 7.89912 33.3917 9.17024H30.3463C30.3008 8.67087 30.0887 8.27743 29.7099 7.98991C29.3463 7.68726 28.8539 7.53594 28.2327 7.53594C27.6569 7.53594 27.21 7.64187 26.8918 7.85372C26.5888 8.06557 26.4372 8.36066 26.4372 8.73897C26.4372 9.16267 26.6494 9.48802 27.0736 9.71501C27.4978 9.92686 28.1569 10.1463 29.0508 10.3733C29.9599 10.6003 30.7099 10.8348 31.3008 11.0769C31.8917 11.319 32.3993 11.6974 32.8235 12.2119C33.2629 12.7112 33.4902 13.3771 33.5053 14.2093C33.5053 14.9357 33.3008 15.5864 32.8917 16.1614C32.4978 16.7364 31.922 17.1904 31.1644 17.5233C30.422 17.8411 29.5508 18 28.5508 18Z" fill="black"/>
<path d="M48.0033 5.22068V17.7957H44.7988V16.2068C44.3897 16.7516 43.8519 17.1829 43.1852 17.5006C42.5337 17.8033 41.8216 17.9546 41.0489 17.9546C40.064 17.9546 39.1928 17.7503 38.4353 17.3417C37.6777 16.918 37.0792 16.3052 36.6398 15.5032C36.2156 14.686 36.0035 13.7175 36.0035 12.5977V5.22068H39.1853V12.1438C39.1853 13.1425 39.4353 13.9143 39.9352 14.459C40.4352 14.9887 41.117 15.2535 41.9807 15.2535C42.8594 15.2535 43.5488 14.9887 44.0488 14.459C44.5488 13.9143 44.7988 13.1425 44.7988 12.1438V5.22068H48.0033Z" fill="black"/>
<path d="M50.3245 11.4628C50.3245 10.1917 50.5745 9.06431 51.0745 8.08071C51.5896 7.0971 52.279 6.34048 53.1426 5.81085C54.0214 5.28121 54.9986 5.01639 56.0744 5.01639C57.0137 5.01639 57.8319 5.20555 58.5289 5.58386C59.241 5.96217 59.8092 6.43884 60.2334 7.01387V5.22068H63.4379V17.7957H60.2334V15.9571C59.8243 16.5473 59.2561 17.0391 58.5289 17.4325C57.8168 17.8108 56.991 18 56.0516 18C54.9911 18 54.0214 17.7276 53.1426 17.1829C52.279 16.6381 51.5896 15.8739 51.0745 14.8903C50.5745 13.8916 50.3245 12.7491 50.3245 11.4628ZM60.2334 11.5082C60.2334 10.7364 60.0819 10.0782 59.7789 9.53342C59.4758 8.97352 59.0667 8.54981 58.5516 8.2623C58.0365 7.95965 57.4834 7.80832 56.8925 7.80832C56.3016 7.80832 55.7562 7.95208 55.2562 8.2396C54.7562 8.52711 54.3471 8.95082 54.029 9.51072C53.7259 10.0555 53.5744 10.7062 53.5744 11.4628C53.5744 12.2194 53.7259 12.8852 54.029 13.4603C54.3471 14.0202 54.7562 14.4515 55.2562 14.7541C55.7713 15.0567 56.3168 15.2081 56.8925 15.2081C57.4834 15.2081 58.0365 15.0643 58.5516 14.7768C59.0667 14.4741 59.4758 14.0504 59.7789 13.5057C60.0819 12.9458 60.2334 12.28 60.2334 11.5082Z" fill="black"/>
<path d="M69.7272 0.99874V17.7957H66.5454V0.99874H69.7272Z" fill="black"/>
<path d="M83.7634 17.9546C82.6573 17.9546 81.6573 17.7654 80.7634 17.3871C79.8846 17.0088 79.1877 16.4641 78.6725 15.7528C78.1574 15.0416 77.8923 14.2018 77.8771 13.2333H81.2861C81.3316 13.884 81.5589 14.3985 81.9679 14.7768C82.3922 15.1551 82.9679 15.3443 83.6952 15.3443C84.4376 15.3443 85.0209 15.1702 85.4452 14.8222C85.8694 14.459 86.0815 13.9899 86.0815 13.4149C86.0815 12.9458 85.9376 12.5599 85.6497 12.2573C85.3618 11.9546 84.9982 11.7201 84.5588 11.5536C84.1346 11.372 83.5437 11.1753 82.7861 10.9634C81.7558 10.6608 80.9149 10.3657 80.2634 10.0782C79.6271 9.77554 79.0741 9.32913 78.6044 8.73897C78.1498 8.13367 77.9226 7.33165 77.9226 6.33291C77.9226 5.3947 78.1574 4.57755 78.6271 3.88146C79.0968 3.18537 79.7559 2.65574 80.6043 2.29256C81.4528 1.91425 82.4225 1.7251 83.5134 1.7251C85.1497 1.7251 86.4754 2.1261 87.4906 2.92812C88.5209 3.71501 89.089 4.81967 89.1951 6.24212H85.6952C85.6649 5.69735 85.43 5.25095 84.9906 4.9029C84.5664 4.53972 83.9982 4.35813 83.2861 4.35813C82.6649 4.35813 82.1649 4.51702 81.7861 4.8348C81.4225 5.15259 81.2407 5.61412 81.2407 6.21942C81.2407 6.64313 81.377 6.99874 81.6498 7.28625C81.9376 7.55864 82.2861 7.78562 82.6952 7.96721C83.1194 8.13367 83.7103 8.33039 84.4679 8.55738C85.4982 8.86003 86.3391 9.16268 86.9906 9.46532C87.6421 9.76797 88.2027 10.2219 88.6724 10.8272C89.1421 11.4325 89.3769 12.227 89.3769 13.2106C89.3769 14.058 89.1572 14.8449 88.7178 15.5712C88.2784 16.2976 87.6345 16.8802 86.7861 17.319C85.9376 17.7428 84.93 17.9546 83.7634 17.9546Z" fill="black"/>
<path d="M91.3172 11.5082C91.3172 10.2068 91.5824 9.07188 92.1127 8.10341C92.643 7.1198 93.3778 6.36318 94.3172 5.83354C95.2566 5.28878 96.3323 5.01639 97.5444 5.01639C99.105 5.01639 100.393 5.40984 101.408 6.19672C102.438 6.96848 103.128 8.05801 103.476 9.46532H100.044C99.8625 8.92056 99.5519 8.49685 99.1126 8.1942C98.6883 7.87642 98.158 7.71753 97.5217 7.71753C96.6126 7.71753 95.8929 8.05044 95.3626 8.71627C94.8323 9.36696 94.5672 10.2976 94.5672 11.5082C94.5672 12.7037 94.8323 13.6343 95.3626 14.3001C95.8929 14.9508 96.6126 15.2762 97.5217 15.2762C98.8095 15.2762 99.6504 14.7011 100.044 13.5511H103.476C103.128 14.913 102.438 15.995 101.408 16.797C100.378 17.599 99.0898 18 97.5444 18C96.3323 18 95.2566 17.7352 94.3172 17.2055C93.3778 16.6608 92.643 15.9042 92.1127 14.9357C91.5824 13.9521 91.3172 12.8096 91.3172 11.5082Z" fill="black"/>
<path d="M112.898 5.03909C113.852 5.03909 114.701 5.25095 115.443 5.67465C116.186 6.08323 116.761 6.69609 117.171 7.51324C117.595 8.31526 117.807 9.28373 117.807 10.4187V17.7957H114.625V10.8499C114.625 9.8512 114.375 9.08701 113.875 8.55738C113.375 8.01261 112.693 7.74023 111.83 7.74023C110.951 7.74023 110.254 8.01261 109.739 8.55738C109.239 9.08701 108.989 9.8512 108.989 10.8499V17.7957H105.807V0.99874H108.989V6.78689C109.398 6.24212 109.943 5.81841 110.625 5.51576C111.307 5.19798 112.065 5.03909 112.898 5.03909Z" fill="black"/>
<path d="M126.423 18C125.211 18 124.12 17.7352 123.151 17.2055C122.181 16.6608 121.416 15.8966 120.855 14.913C120.31 13.9294 120.037 12.7945 120.037 11.5082C120.037 10.2219 120.317 9.08701 120.878 8.10341C121.454 7.1198 122.234 6.36318 123.219 5.83354C124.204 5.28878 125.302 5.01639 126.514 5.01639C127.726 5.01639 128.825 5.28878 129.81 5.83354C130.795 6.36318 131.567 7.1198 132.128 8.10341C132.704 9.08701 132.991 10.2219 132.991 11.5082C132.991 12.7945 132.696 13.9294 132.105 14.913C131.529 15.8966 130.741 16.6608 129.741 17.2055C128.757 17.7352 127.651 18 126.423 18ZM126.423 15.2308C126.999 15.2308 127.537 15.0946 128.037 14.8222C128.552 14.5347 128.961 14.111 129.264 13.5511C129.567 12.9912 129.719 12.3102 129.719 11.5082C129.719 10.3127 129.401 9.39723 128.764 8.76167C128.143 8.11097 127.378 7.78563 126.469 7.78563C125.56 7.78563 124.795 8.11097 124.173 8.76167C123.567 9.39723 123.264 10.3127 123.264 11.5082C123.264 12.7037 123.56 13.6267 124.151 14.2774C124.757 14.913 125.514 15.2308 126.423 15.2308Z" fill="black"/>
<path d="M140.916 18C139.704 18 138.613 17.7352 137.644 17.2055C136.674 16.6608 135.909 15.8966 135.348 14.913C134.803 13.9294 134.53 12.7945 134.53 11.5082C134.53 10.2219 134.81 9.08701 135.371 8.10341C135.947 7.1198 136.727 6.36318 137.712 5.83354C138.697 5.28878 139.795 5.01639 141.007 5.01639C142.219 5.01639 143.318 5.28878 144.303 5.83354C145.287 6.36318 146.06 7.1198 146.621 8.10341C147.196 9.08701 147.484 10.2219 147.484 11.5082C147.484 12.7945 147.189 13.9294 146.598 14.913C146.022 15.8966 145.234 16.6608 144.234 17.2055C143.249 17.7352 142.143 18 140.916 18ZM140.916 15.2308C141.492 15.2308 142.03 15.0946 142.53 14.8222C143.045 14.5347 143.454 14.111 143.757 13.5511C144.06 12.9912 144.212 12.3102 144.212 11.5082C144.212 10.3127 143.893 9.39723 143.257 8.76167C142.636 8.11097 141.871 7.78563 140.962 7.78563C140.053 7.78563 139.287 8.11097 138.666 8.76167C138.06 9.39723 137.757 10.3127 137.757 11.5082C137.757 12.7037 138.053 13.6267 138.644 14.2774C139.25 14.913 140.007 15.2308 140.916 15.2308Z" fill="black"/>
<path d="M153 0.99874V17.7957H149.818V0.99874H153Z" fill="black"/>
</svg>
