<svg width="178" height="178" viewBox="0 0 178 178" fill="none" xmlns="http://www.w3.org/2000/svg">
<path d="M50.4185 17.5886H114.943C131.176 29.0851 145.329 43.2649 156.796 59.5188V158.765H50.4185V17.5886Z" fill="url(#paint0_linear_199_2572)"/>
<path d="M50.4185 17.5886H114.943C131.176 29.0851 145.329 43.2649 156.796 59.5188V158.765H50.4185V17.5886Z" stroke="#C8C8C8" stroke-width="0.5"/>
<path d="M114.933 17.5886C131.145 29.1127 145.298 43.2882 156.796 59.5187C152.973 55.5899 148.338 52.5437 143.215 50.5932C138.092 48.6427 132.605 47.8351 127.137 48.2269C127.916 42.5011 127.202 36.6711 125.064 31.3027C122.926 25.9343 119.436 21.2101 114.933 17.5886V17.5886Z" fill="url(#paint1_linear_199_2572)"/>
<path d="M114.933 17.5886C131.145 29.1127 145.298 43.2882 156.796 59.5187C152.973 55.5899 148.338 52.5437 143.215 50.5932C138.092 48.6427 132.605 47.8351 127.137 48.2269C127.916 42.5011 127.202 36.6711 125.064 31.3027C122.926 25.9343 119.436 21.2101 114.933 17.5886V17.5886Z" stroke="#C8C8C8" stroke-width="0.5"/>
<path d="M29.6982 36.134H108.129V51.1528H29.6982V36.134Z" stroke="#C8C8C8" stroke-width="4"/>
<path d="M87.993 110.443C90.5851 105.359 93.5555 99.6354 95.8918 93.8838L96.8263 91.6143C93.7446 79.8885 91.8979 70.4768 93.55 64.3914C93.8964 63.572 94.494 62.8837 95.2568 62.4258C96.0196 61.9679 96.9081 61.7641 97.7941 61.8438H99.207C101.899 61.8048 103.162 65.2258 103.307 66.5552C103.327 68.5699 103.063 70.5774 102.522 72.5182C102.654 70.4548 102.349 68.3868 101.627 66.4495C100.514 64.0076 99.4518 62.5558 98.5006 62.3166C98.1621 62.5907 97.8873 62.9352 97.6952 63.3261C97.5031 63.717 97.3983 64.1451 97.3881 64.5805C97.1057 66.3073 96.9625 68.054 96.9598 69.8037C97.0911 74.9477 97.901 80.0518 99.3683 84.9838C99.6687 84.116 99.9246 83.2816 100.147 82.4973C100.475 81.2625 102.556 73.0911 102.556 73.0911C102.556 73.0911 102.033 83.9714 101.299 87.2588C101.143 87.9541 100.97 88.6439 100.787 89.3448C103.25 96.4066 107.337 102.791 112.718 107.985C114.832 109.818 117.146 111.408 119.616 112.724C124.25 112.025 128.93 111.674 133.617 111.673C137.376 111.293 141.157 112.138 144.397 114.081C145.111 114.801 145.533 115.76 145.582 116.773C145.557 117.303 145.481 117.828 145.354 118.342C145.409 118.058 145.409 116.673 141.154 115.305C135.489 114.227 129.68 114.146 123.988 115.066C132.699 119.327 141.193 121.446 143.879 120.178C144.447 119.799 144.94 119.32 145.337 118.765C145.15 119.685 144.878 120.587 144.525 121.457C143.988 122.138 143.257 122.639 142.428 122.892C138.178 124.005 127.12 121.401 117.48 115.895C106.596 117.565 95.8665 120.116 85.3953 123.521C76.0781 139.852 69.0694 147.351 63.3734 144.497L61.2763 143.446C60.894 143.137 60.6143 142.72 60.4742 142.249C60.3342 141.778 60.3404 141.276 60.492 140.809C61.154 137.561 65.2313 132.66 73.4193 127.771C74.2981 127.214 78.2253 125.162 78.2253 125.162C78.2253 125.162 75.3161 127.976 74.6375 128.527C68.1015 133.884 63.2788 140.62 63.3956 143.234V143.462C68.9581 142.672 77.2741 131.369 87.9763 110.427L87.993 110.443ZM91.3695 112.162C89.691 115.302 87.9739 118.421 86.2186 121.518C95.1421 117.942 104.418 115.317 113.892 113.686C112.668 112.845 111.486 111.944 110.349 110.988C105.464 106.775 101.489 101.61 98.6675 95.8084C96.6043 101.422 94.1566 106.886 91.3416 112.162" fill="#F91D0A"/>
<path d="M20.8594 27.6345H116.89V59.9137H20.8594V27.6345Z" fill="url(#paint2_linear_199_2572)"/>
<path d="M118.72 61.8494H19.1182V25.6987H118.72V61.8494ZM115.144 29.281H22.7004V58.256H115.144V29.281Z" fill="url(#paint3_linear_199_2572)"/>
<path d="M45.9575 32.3682H52.944C53.8262 32.3117 54.7101 32.4471 55.535 32.7649C56.3598 33.0828 57.106 33.5756 57.7222 34.2094C58.9202 35.6718 59.5168 37.5352 59.391 39.4215C59.5167 41.3162 58.9205 43.1883 57.7222 44.6613C57.1045 45.2922 56.3577 45.7819 55.5329 46.0968C54.7081 46.4117 53.8249 46.5445 52.944 46.4858H50.1628V53.9897H45.9575V32.3682ZM50.1683 36.4066V42.4475H52.499C52.853 42.4677 53.2069 42.4076 53.5344 42.2718C53.8619 42.136 54.1545 41.9279 54.3903 41.6632C54.8672 41.0229 55.1035 40.2352 55.0578 39.4382C55.1089 38.6405 54.872 37.851 54.3903 37.2132C54.1547 36.9481 53.8622 36.7398 53.5347 36.6039C53.2071 36.4681 52.853 36.4082 52.499 36.4288H50.1683V36.4066ZM66.5721 36.6013V49.7788H68.0796C68.8208 49.8284 69.5634 49.7032 70.2474 49.4134C70.9314 49.1236 71.5379 48.6771 72.0178 48.1101C73.0219 46.6732 73.5047 44.9362 73.3862 43.1873C73.5047 41.4486 73.0258 39.7217 72.029 38.2923C71.5464 37.7254 70.938 37.2792 70.2522 36.9895C69.5664 36.6997 68.8224 36.5744 68.0796 36.6235H66.5721V36.6013ZM62.3613 32.4072H66.8113C68.6702 32.3124 70.5314 32.5402 72.3126 33.0802C73.5563 33.5641 74.6393 34.387 75.4388 35.4554C76.2199 36.4606 76.7997 37.607 77.1465 38.8318C77.5358 40.2427 77.7231 41.7016 77.7027 43.165C77.7232 44.6413 77.5359 46.1131 77.1465 47.5372C76.7997 48.762 76.2199 49.9084 75.4388 50.9136C74.6292 51.9852 73.5398 52.8128 72.2904 53.3055C70.5055 53.8473 68.6415 54.0824 66.778 54.0008H62.328V32.3682L62.3613 32.4072ZM80.9178 32.3682H92.3376V36.5846H85.162V40.6063H91.8871V44.8227H85.162V53.9897H80.9512V32.3682" fill="#FFF9F9"/>
<defs>
<linearGradient id="paint0_linear_199_2572" x1="81.4727" y1="128.18" x2="120.822" y2="57.0621" gradientUnits="userSpaceOnUse">
<stop stop-color="white"/>
<stop offset="1" stop-color="#E1E1E1"/>
</linearGradient>
<linearGradient id="paint1_linear_199_2572" x1="131.036" y1="43.0037" x2="137.088" y2="37.4245" gradientUnits="userSpaceOnUse">
<stop stop-color="white"/>
<stop offset="1" stop-color="#C8C8C8"/>
</linearGradient>
<linearGradient id="paint2_linear_199_2572" x1="78.2032" y1="72.485" x2="59.5466" y2="15.0633" gradientUnits="userSpaceOnUse">
<stop offset="0.127" stop-color="#8A0000"/>
<stop offset="0.244" stop-color="#900000" stop-opacity="0.999"/>
<stop offset="0.398" stop-color="#A00000" stop-opacity="0.999"/>
<stop offset="0.573" stop-color="#BC0000" stop-opacity="0.998"/>
<stop offset="0.761" stop-color="#E20000" stop-opacity="0.997"/>
<stop offset="0.867" stop-color="#FA0000" stop-opacity="0.996"/>
</linearGradient>
<linearGradient id="paint3_linear_199_2572" x1="78.9874" y1="74.76" x2="58.8567" y2="12.7882" gradientUnits="userSpaceOnUse">
<stop offset="0.315" stop-color="#5E0000"/>
<stop offset="0.444" stop-color="#830000" stop-opacity="0.999"/>
<stop offset="0.618" stop-color="#AE0000" stop-opacity="0.998"/>
<stop offset="0.775" stop-color="#CD0000" stop-opacity="0.997"/>
<stop offset="0.908" stop-color="#E00000" stop-opacity="0.996"/>
<stop offset="1" stop-color="#E70000" stop-opacity="0.996"/>
</linearGradient>
</defs>
</svg>
